<svg width="38" height="41" viewBox="0 0 38 41" fill="none" xmlns="http://www.w3.org/2000/svg">
<path d="M19 39.3672C21.2 39.3672 23 37.6133 23 35.4698H15C15 37.6133 16.78 39.3672 19 39.3672ZM31 27.6749V17.9313C31 11.9487 27.72 6.94052 22 5.61539V4.29026C22 2.67283 20.66 1.36719 19 1.36719C17.34 1.36719 16 2.67283 16 4.29026V5.61539C10.26 6.94052 7 11.9292 7 17.9313V27.6749H5C3.89543 27.6749 3 28.5703 3 29.6749V31.521C3 32.6256 3.89543 33.521 5 33.521H33C34.1046 33.521 35 32.6256 35 31.521V29.6749C35 28.5703 34.1046 27.6749 33 27.6749H31Z" fill="white"/>
</svg>
